<?xml version="1.0" encoding="UTF-8" standalone="no"?>
<!-- Created with Inkscape (http://www.inkscape.org/) -->

<svg
   xmlns:dc="http://purl.org/dc/elements/1.1/"
   xmlns:cc="http://creativecommons.org/ns#"
   xmlns:rdf="http://www.w3.org/1999/02/22-rdf-syntax-ns#"
   xmlns:svg="http://www.w3.org/2000/svg"
   xmlns="http://www.w3.org/2000/svg"
   xmlns:sodipodi="http://sodipodi.sourceforge.net/DTD/sodipodi-0.dtd"
   xmlns:inkscape="http://www.inkscape.org/namespaces/inkscape"
   width="48pt"
   height="48pt"
   viewBox="0 0 16.933334 16.933333"
   version="1.1"
   id="svg979"
   inkscape:version="0.92.4 (5da689c313, 2019-01-14)"
   sodipodi:docname="14 - Budget.svg"
   inkscape:export-filename="E:\TR Design Studio Creative\Project Design\TR Creative Design\Icon Design\Project Hiring\Icon Icons\003 - Business And Finance\Send\2 - Solid\14 - Budget.png"
   inkscape:export-xdpi="768"
   inkscape:export-ydpi="768">
  <defs
     id="defs973">
    <pattern
       y="0"
       x="0"
       height="6"
       width="6"
       patternUnits="userSpaceOnUse"
       id="EMFhbasepattern" />
  </defs>
  <sodipodi:namedview
     id="base"
     pagecolor="#ffffff"
     bordercolor="#666666"
     borderopacity="1.0"
     inkscape:pageopacity="0.0"
     inkscape:pageshadow="2"
     inkscape:zoom="8.546875"
     inkscape:cx="32"
     inkscape:cy="32"
     inkscape:document-units="pt"
     inkscape:current-layer="layer1"
     showgrid="false"
     units="pt"
     inkscape:window-width="1366"
     inkscape:window-height="716"
     inkscape:window-x="-8"
     inkscape:window-y="-8"
     inkscape:window-maximized="1"
     inkscape:snap-bbox="true"
     inkscape:bbox-nodes="true"
     inkscape:snap-nodes="false"
     showguides="false">
    <inkscape:grid
       type="xygrid"
       id="grid1526" />
    <sodipodi:guide
       position="0.97013909,15.963209"
       orientation="56.666615,0"
       id="guide1528"
       inkscape:locked="false" />
    <sodipodi:guide
       position="0.97013909,0.97016731"
       orientation="0,56.666667"
       id="guide1530"
       inkscape:locked="false" />
    <sodipodi:guide
       position="15.963195,0.97016731"
       orientation="-56.666615,0"
       id="guide1532"
       inkscape:locked="false" />
    <sodipodi:guide
       position="15.963195,15.963209"
       orientation="0,-56.666667"
       id="guide1534"
       inkscape:locked="false" />
  </sodipodi:namedview>
  <metadata
     id="metadata976">
    <rdf:RDF>
      <cc:Work
         rdf:about="">
        <dc:format>image/svg+xml</dc:format>
        <dc:type
           rdf:resource="http://purl.org/dc/dcmitype/StillImage" />
        <dc:title></dc:title>
      </cc:Work>
    </rdf:RDF>
  </metadata>
  <g
     inkscape:label="Layer 1"
     inkscape:groupmode="layer"
     id="layer1"
     transform="translate(0,-280.06668)">
    <path
       d="m 12.861366,283.05807 v -1.00189 c 0,-0.55957 -0.460441,-1.01935 -1.020013,-1.01935 H 5.038172 c -0.559571,0 -1.0226692,0.45978 -1.0226692,1.01935 v 1.00189 z m -7.823194,1.1e-4 v -0.32162 c -7.304e-4,-0.1879 0.1509983,-0.34082 0.3388965,-0.34155 0.1878982,7.3e-4 0.339627,0.15365 0.3388966,0.34155 v 0.32162 z m 1.5290209,0 v -0.32162 c -7.485e-4,-0.18894 0.1526173,-0.34229 0.3415545,-0.34155 0.1881578,3.6e-4 0.3402917,0.1534 0.3395612,0.34155 v 0.32162 z m 1.5323434,0 v -0.32162 c -7.145e-4,-0.1879 0.1509971,-0.34082 0.3388953,-0.34155 0.1889369,-7.4e-4 0.3422885,0.15261 0.3415542,0.34155 v 0.32162 z m 1.5296844,0 v -0.32162 c -7.49e-4,-0.18894 0.152617,-0.34229 0.341555,-0.34155 0.1878973,7.3e-4 0.3396263,0.15365 0.3388963,0.34155 v 0.32162 z m 1.5316793,0 v -0.32162 c -7.15e-4,-0.1879 0.150998,-0.34082 0.338896,-0.34155 0.188937,-7.3e-4 0.342287,0.15261 0.341553,0.34155 v 0.32162 z m -6.4642813,0.71103 v 0.88909 l -0.7163338,0.63261 c -0.1978395,0.17456 -0.4231636,0.35749 -0.6126717,0.59539 -0.1895095,0.23792 -0.3415545,0.54903 -0.3415545,0.91636 -0.042332,2.80196 0.044273,5.79221 0.019957,8.5249 -0.0099,0.37768 0.2933451,0.68931 0.6711476,0.68976 l 0.411327,6.8e-4 c -0.064822,-0.18642 -0.076896,-0.39271 -0.022593,-0.59541 l 0.6159946,-2.29985 c 0.1448247,-0.54051 0.7107556,-0.86514 1.251258,-0.72031 0.4691241,0.12576 0.7753216,0.56692 0.7535462,1.03463 0.125143,-0.0754 0.2657153,-0.12756 0.4173063,-0.14354 -0.041007,-0.10981 -0.066455,-0.22689 -0.066455,-0.35018 0,-0.12023 0.024728,-0.23393 0.063793,-0.34156 h -0.063793 c -0.5595709,0 -1.0200111,-0.45979 -1.0200111,-1.01935 0,-0.46812 0.3239635,-0.8624 0.7568677,-0.98013 -0.048182,-0.1183 -0.076421,-0.24689 -0.076421,-0.38143 0,-0.3349 0.166996,-0.63167 0.4193019,-0.818 -0.772949,-0.46122 -1.2931252,-1.32355 -1.2931214,-2.30383 0,-1.45868 1.1493176,-2.662 2.5742816,-2.662 1.4249646,0 2.5742809,1.20332 2.5742839,2.662 4e-6,0.85205 -0.393899,1.61429 -1.004063,2.10249 h 0.132901 c 0.559572,0 1.019347,0.45977 1.019347,1.01934 0,0.46778 -0.323161,0.86414 -0.75554,0.9828 0.04767,0.11753 0.07508,0.24498 0.07508,0.37876 0,0.1192 -0.02486,0.23221 -0.06313,0.33889 h 0.06313 c 0.55957,0 1.019347,0.46245 1.019347,1.02202 0,0.52414 -0.404687,0.95616 -0.915685,1.00937 0.04135,0.11033 0.06711,0.22835 0.06711,0.35219 0,0.12306 -0.0256,0.23994 -0.06645,0.34954 0.510679,0.0537 0.91502,0.48744 0.91502,1.01136 0,0.12409 -0.02582,0.2418 -0.06711,0.3522 l 1.802132,-6.8e-4 c 0.375801,-2.1e-4 0.681501,-0.30531 0.682444,-0.68113 0.0032,-2.83699 0.0013,-5.72147 0.0013,-8.58071 0,-0.64334 -0.372808,-1.22483 -0.950239,-1.47986 l -0.787443,-0.62728 v -0.87913 z m 3.7418129,1.34826 c -1.0430156,0 -1.8938294,0.87694 -1.8938321,1.98155 -3.7e-6,1.10463 0.8508113,1.97955 1.8938321,1.97955 1.0430221,0 1.8938374,-0.87492 1.8938334,-1.97955 -3e-6,-1.10461 -0.8508183,-1.98155 -1.8938334,-1.98155 z m 0,0.34156 c 0.1881578,-7.5e-4 0.3411841,0.15138 0.3415542,0.33955 0.1879034,7.5e-4 0.3396349,0.15365 0.3388968,0.34156 -7.149e-4,0.18686 -0.152031,0.33816 -0.3388968,0.3389 H 8.4384316 v 0.33889 h 0.3415542 c 0.1878959,7.5e-4 0.3396156,0.15367 0.3388968,0.34156 v 1.02001 c 7.15e-4,0.18789 -0.1510009,0.34081 -0.3388968,0.34156 -7.484e-4,0.18791 -0.1536521,0.33963 -0.3415542,0.3389 -0.1868646,-7.5e-4 -0.3381662,-0.15204 -0.3388953,-0.3389 -0.1889425,7.4e-4 -0.3422967,-0.15261 -0.3415546,-0.34156 3.742e-4,-0.18816 0.1533913,-0.3403 0.3415546,-0.33957 h 0.3388953 v -0.34154 H 8.0995363 c -0.1878946,7.2e-4 -0.3408038,-0.151 -0.3415546,-0.3389 v -1.01935 c -7.144e-4,-0.18894 0.15262,-0.34228 0.3415546,-0.34156 3.742e-4,-0.18712 0.1517762,-0.33882 0.3388953,-0.33955 z m -0.6804499,4.42293 c -0.1943687,0 -0.3388964,0.14452 -0.3388964,0.33889 0,0.19435 0.1445277,0.34156 0.3388964,0.34156 h 2.3835703 c 0.194369,0 0.338897,-0.14721 0.338897,-0.34156 0,-0.19437 -0.144528,-0.33889 -0.338897,-0.33889 z m -0.6804509,1.36156 c -0.1943677,0 -0.3395602,0.14454 -0.3395602,0.33889 0,0.19438 0.1451925,0.3389 0.3395602,0.3389 h 2.3829069 c 0.194368,0 0.339561,-0.14452 0.339561,-0.3389 0,-0.19435 -0.145193,-0.33889 -0.339561,-0.33889 z m 1.0220055,1.35825 c -0.1943691,0 -0.3415546,0.14718 -0.3415546,0.34154 0,0.19436 0.1471855,0.33957 0.3415546,0.33957 h 2.3809127 c 0.194369,0 0.338897,-0.14521 0.338897,-0.33957 0,-0.19436 -0.144528,-0.34154 -0.338897,-0.34154 z m -2.440054,0.44787 c -0.1320841,0.0162 -0.242029,0.1084 -0.2797558,0.24918 l -0.616658,2.29985 c -0.050304,0.18776 0.054123,0.36837 0.2418787,0.41865 0.1877542,0.0503 0.3656713,-0.0548 0.4159793,-0.24255 l 0.6159932,-2.29984 c 0.050304,-0.18773 -0.052143,-0.36438 -0.2398856,-0.41465 -0.046935,-0.0129 -0.093523,-0.0161 -0.1375518,-0.0103 z m 1.5888263,0.91369 c -0.1943765,0 -0.3395612,0.14719 -0.3395612,0.34155 0,0.19437 0.1451925,0.3389 0.3395612,0.3389 h 2.3809121 c 0.194369,0 0.341555,-0.14453 0.341555,-0.3389 0,-0.19436 -0.147179,-0.34155 -0.341555,-0.34155 z m -0.8698344,0.86651 c -0.104183,0.39305 -0.2138952,0.80315 -0.3236164,1.18814 H 7.145306 c -0.041496,-0.11033 -0.067779,-0.2281 -0.067779,-0.35218 0,-0.12409 0.025616,-0.24163 0.067111,-0.35219 -0.3235147,-0.0962 -0.6129455,-0.24424 -0.7661638,-0.48377 z m 1.7210621,0.49439 c -0.1943765,0 -0.3415546,0.1472 -0.3415546,0.34156 0,0.19438 0.1471855,0.33955 0.3415546,0.33955 h 2.3809127 c 0.194369,0 0.338897,-0.14517 0.338897,-0.33955 0,-0.19436 -0.144521,-0.34156 -0.338897,-0.34156 z"
       style="color:#000000;font-style:normal;font-variant:normal;font-weight:normal;font-stretch:normal;font-size:medium;line-height:normal;font-family:sans-serif;font-variant-ligatures:normal;font-variant-position:normal;font-variant-caps:normal;font-variant-numeric:normal;font-variant-alternates:normal;font-feature-settings:normal;text-indent:0;text-align:start;text-decoration:none;text-decoration-line:none;text-decoration-style:solid;text-decoration-color:#000000;letter-spacing:normal;word-spacing:normal;text-transform:none;writing-mode:lr-tb;direction:ltr;text-orientation:mixed;dominant-baseline:auto;baseline-shift:baseline;text-anchor:start;white-space:normal;shape-padding:0;clip-rule:nonzero;display:inline;overflow:visible;visibility:visible;isolation:auto;mix-blend-mode:normal;color-interpolation:sRGB;color-interpolation-filters:linearRGB;solid-color:#000000;solid-opacity:1;vector-effect:none;fill:#000000;fill-opacity:1;fill-rule:nonzero;stroke:none;stroke-width:0.529167;stroke-linecap:round;stroke-linejoin:round;stroke-miterlimit:4;stroke-dasharray:none;stroke-dashoffset:0;stroke-opacity:1;color-rendering:auto;image-rendering:auto;shape-rendering:auto;text-rendering:auto;enable-background:accumulate"
       id="path1432"
       inkscape:connector-curvature="0"
       sodipodi:nodetypes="ccssccccccccccccccccccccccccccccccccccccccccccccccscsscsccsccsscscsscscsccccccccscscsscccccccccccccccccccsssssssssssssssssssssscccccccccssssssscccsccsssssss" />
  </g>
</svg>
