<svg version="1.1" xmlns="http://www.w3.org/2000/svg" xmlns:xlink="http://www.w3.org/1999/xlink" width="48pt" height="48pt" viewBox="0,0,256,256"><g fill="#f2998d" fill-rule="nonzero" stroke="none" stroke-width="0.52917" stroke-linecap="round" stroke-linejoin="round" stroke-miterlimit="4" stroke-dasharray="" stroke-dashoffset="0" font-family="none" font-weight="none" font-size="none" text-anchor="none" style="mix-blend-mode: normal"><g transform="translate(0,0.00004) scale(15.11811,15.11811)"><g transform="translate(0,-280.06668)" id="layer1"><path d="M12.86137,283.05807v-1.00189c0,-0.55957 -0.46044,-1.01935 -1.02001,-1.01935h-6.80318c-0.55957,0 -1.02267,0.45978 -1.02267,1.01935v1.00189zM5.03817,283.05818v-0.32162c-0.00073,-0.1879 0.151,-0.34082 0.3389,-0.34155c0.1879,0.00073 0.33963,0.15365 0.3389,0.34155v0.32162zM6.56719,283.05818v-0.32162c-0.00075,-0.18894 0.15262,-0.34229 0.34155,-0.34155c0.18816,0.00036 0.34029,0.1534 0.33956,0.34155v0.32162zM8.09954,283.05818v-0.32162c-0.00071,-0.1879 0.151,-0.34082 0.3389,-0.34155c0.18894,-0.00074 0.34229,0.15261 0.34155,0.34155v0.32162zM9.62922,283.05818v-0.32162c-0.00075,-0.18894 0.15262,-0.34229 0.34155,-0.34155c0.1879,0.00073 0.33963,0.15365 0.3389,0.34155v0.32162zM11.1609,283.05818v-0.32162c-0.00071,-0.1879 0.151,-0.34082 0.3389,-0.34155c0.18894,-0.00073 0.34229,0.15261 0.34155,0.34155v0.32162zM4.69662,283.76921v0.88909l-0.71633,0.63261c-0.19784,0.17456 -0.42316,0.35749 -0.61267,0.59539c-0.18951,0.23792 -0.34155,0.54903 -0.34155,0.91636c-0.04233,2.80196 0.04427,5.79221 0.01996,8.5249c-0.0099,0.37768 0.29335,0.68931 0.67115,0.68976l0.41133,0.00068c-0.06482,-0.18642 -0.0769,-0.39271 -0.02259,-0.59541l0.61599,-2.29985c0.14482,-0.54051 0.71076,-0.86514 1.25126,-0.72031c0.46912,0.12576 0.77532,0.56692 0.75355,1.03463c0.12514,-0.0754 0.26572,-0.12756 0.41731,-0.14354c-0.04101,-0.10981 -0.06646,-0.22689 -0.06646,-0.35018c0,-0.12023 0.02473,-0.23393 0.06379,-0.34156h-0.06379c-0.55957,0 -1.02001,-0.45979 -1.02001,-1.01935c0,-0.46812 0.32396,-0.8624 0.75687,-0.98013c-0.04818,-0.1183 -0.07642,-0.24689 -0.07642,-0.38143c0,-0.3349 0.167,-0.63167 0.4193,-0.818c-0.77295,-0.46122 -1.29313,-1.32355 -1.29312,-2.30383c0,-1.45868 1.14932,-2.662 2.57428,-2.662c1.42496,0 2.57428,1.20332 2.57428,2.662c0,0.85205 -0.3939,1.61429 -1.00406,2.10249h0.1329c0.55957,0 1.01935,0.45977 1.01935,1.01934c0,0.46778 -0.32316,0.86414 -0.75554,0.9828c0.04767,0.11753 0.07508,0.24498 0.07508,0.37876c0,0.1192 -0.02486,0.23221 -0.06313,0.33889h0.06313c0.55957,0 1.01935,0.46245 1.01935,1.02202c0,0.52414 -0.40469,0.95616 -0.91568,1.00937c0.04135,0.11033 0.06711,0.22835 0.06711,0.35219c0,0.12306 -0.0256,0.23994 -0.06645,0.34954c0.51068,0.0537 0.91502,0.48744 0.91502,1.01136c0,0.12409 -0.02582,0.2418 -0.06711,0.3522l1.80213,-0.00068c0.3758,-0.00021 0.6815,-0.30531 0.68244,-0.68113c0.0032,-2.83699 0.0013,-5.72147 0.0013,-8.58071c0,-0.64334 -0.37281,-1.22483 -0.95024,-1.47986l-0.78744,-0.62728v-0.87913zM8.43843,285.11747c-1.04302,0 -1.89383,0.87694 -1.89383,1.98155c0,1.10463 0.85081,1.97955 1.89383,1.97955c1.04302,0 1.89384,-0.87492 1.89383,-1.97955c0,-1.10461 -0.85082,-1.98155 -1.89383,-1.98155zM8.43843,285.45903c0.18816,-0.00075 0.34118,0.15138 0.34155,0.33955c0.1879,0.00075 0.33963,0.15365 0.3389,0.34156c-0.00071,0.18686 -0.15203,0.33816 -0.3389,0.3389h-0.34155v0.33889h0.34155c0.1879,0.00075 0.33962,0.15367 0.3389,0.34156v1.02001c0.00071,0.18789 -0.151,0.34081 -0.3389,0.34156c-0.00075,0.18791 -0.15365,0.33963 -0.34155,0.3389c-0.18686,-0.00075 -0.33817,-0.15204 -0.3389,-0.3389c-0.18894,0.00074 -0.3423,-0.15261 -0.34155,-0.34156c0.00037,-0.18816 0.15339,-0.3403 0.34155,-0.33957h0.3389v-0.34154h-0.3389c-0.18789,0.00072 -0.3408,-0.151 -0.34155,-0.3389v-1.01935c-0.00071,-0.18894 0.15262,-0.34228 0.34155,-0.34156c0.00037,-0.18712 0.15178,-0.33882 0.3389,-0.33955zM7.75798,289.88196c-0.19437,0 -0.3389,0.14452 -0.3389,0.33889c0,0.19435 0.14453,0.34156 0.3389,0.34156h2.38357c0.19437,0 0.3389,-0.14721 0.3389,-0.34156c0,-0.19437 -0.14453,-0.33889 -0.3389,-0.33889zM7.07753,291.24352c-0.19437,0 -0.33956,0.14454 -0.33956,0.33889c0,0.19438 0.14519,0.3389 0.33956,0.3389h2.38291c0.19437,0 0.33956,-0.14452 0.33956,-0.3389c0,-0.19435 -0.14519,-0.33889 -0.33956,-0.33889zM8.09954,292.60177c-0.19437,0 -0.34155,0.14718 -0.34155,0.34154c0,0.19436 0.14719,0.33957 0.34155,0.33957h2.38091c0.19437,0 0.3389,-0.14521 0.3389,-0.33957c0,-0.19436 -0.14453,-0.34154 -0.3389,-0.34154zM5.65948,293.04964c-0.13208,0.0162 -0.24203,0.1084 -0.27976,0.24918l-0.61666,2.29985c-0.0503,0.18776 0.05412,0.36837 0.24188,0.41865c0.18775,0.0503 0.36567,-0.0548 0.41598,-0.24255l0.61599,-2.29984c0.0503,-0.18773 -0.05214,-0.36438 -0.23989,-0.41465c-0.04694,-0.0129 -0.09352,-0.0161 -0.13755,-0.0103zM7.24831,293.96333c-0.19438,0 -0.33956,0.14719 -0.33956,0.34155c0,0.19437 0.14519,0.3389 0.33956,0.3389h2.38091c0.19437,0 0.34155,-0.14453 0.34155,-0.3389c0,-0.19436 -0.14718,-0.34155 -0.34155,-0.34155zM6.37847,294.82984c-0.10418,0.39305 -0.2139,0.80315 -0.32362,1.18814h1.09045c-0.0415,-0.11033 -0.06778,-0.2281 -0.06778,-0.35218c0,-0.12409 0.02562,-0.24163 0.06711,-0.35219c-0.32351,-0.0962 -0.61295,-0.24424 -0.76616,-0.48377zM8.09954,295.32423c-0.19438,0 -0.34155,0.1472 -0.34155,0.34156c0,0.19438 0.14719,0.33955 0.34155,0.33955h2.38091c0.19437,0 0.3389,-0.14517 0.3389,-0.33955c0,-0.19436 -0.14452,-0.34156 -0.3389,-0.34156z" id="path1432"></path></g></g></g></svg>