<svg version="1.1" xmlns="http://www.w3.org/2000/svg" xmlns:xlink="http://www.w3.org/1999/xlink" width="48px" height="48px" viewBox="0,0,256,256"><g fill="#f6d2a3" fill-rule="evenodd" stroke="none" stroke-width="1" stroke-linecap="butt" stroke-linejoin="miter" stroke-miterlimit="10" stroke-dasharray="" stroke-dashoffset="0" font-family="none" font-weight="none" font-size="none" text-anchor="none" style="mix-blend-mode: normal"><g transform="scale(5.33333,5.33333)"><g id="Icons"><g transform="translate(-500,-160)" id="Black"><path d="M524.00005,160c-6.51806,0 -7.33536,0.02763 -9.89522,0.14443c-2.55452,0.11651 -4.29917,0.52226 -5.82574,1.11559c-1.57821,0.61324 -2.91663,1.43388 -4.25096,2.76811c-1.33423,1.33433 -2.15487,2.67275 -2.76811,4.25096c-0.59333,1.52658 -0.99908,3.27122 -1.11559,5.82574c-0.1168,2.55985 -0.14443,3.37716 -0.14443,9.89522c0,6.51796 0.02763,7.33527 0.14443,9.89512c0.11651,2.55452 0.52226,4.29917 1.11559,5.82574c0.61324,1.57821 1.43388,2.91663 2.76811,4.25096c1.33433,1.33423 2.67275,2.15487 4.25096,2.76821c1.52658,0.59323 3.27122,0.99898 5.82574,1.11549c2.55985,0.1168 3.37716,0.14443 9.89522,0.14443c6.51796,0 7.33527,-0.02763 9.89512,-0.14443c2.55452,-0.11651 4.29917,-0.52226 5.82574,-1.11549c1.57821,-0.61334 2.91663,-1.43398 4.25096,-2.76821c1.33423,-1.33433 2.15487,-2.67275 2.76821,-4.25096c0.59323,-1.52658 0.99898,-3.27122 1.11549,-5.82574c0.1168,-2.55985 0.14443,-3.37716 0.14443,-9.89512c0,-6.51806 -0.02763,-7.33536 -0.14443,-9.89522c-0.11651,-2.55452 -0.52226,-4.29917 -1.11549,-5.82574c-0.61334,-1.57821 -1.43398,-2.91663 -2.76821,-4.25096c-1.33433,-1.33423 -2.67275,-2.15487 -4.25096,-2.76811c-1.52658,-0.59333 -3.27122,-0.99908 -5.82574,-1.11559c-2.55985,-0.1168 -3.37716,-0.14443 -9.89512,-0.14443zM524.00005,164.32432c6.40821,0 7.16731,0.02448 9.69801,0.13995c2.33998,0.1067 3.61076,0.49768 4.45645,0.82635c1.12026,0.43538 1.91975,0.95545 2.75954,1.79533c0.83988,0.83979 1.35995,1.63928 1.79533,2.75954c0.32867,0.8457 0.71965,2.11648 0.82636,4.45645c0.11546,2.5307 0.13995,3.2898 0.13995,9.69811c0,6.40821 -0.02448,7.16731 -0.13995,9.69801c-0.1067,2.33998 -0.49768,3.61076 -0.82636,4.45645c-0.43538,1.12026 -0.95545,1.91975 -1.79533,2.75954c-0.83979,0.83988 -1.63928,1.35995 -2.75954,1.79533c-0.84569,0.32867 -2.11648,0.71965 -4.45645,0.82635c-2.53032,0.11547 -3.28932,0.13995 -9.69801,0.13995c-6.40878,0 -7.16769,-0.02448 -9.69811,-0.13995c-2.33998,-0.1067 -3.61076,-0.49768 -4.45645,-0.82635c-1.12026,-0.43538 -1.91975,-0.95545 -2.75954,-1.79533c-0.83979,-0.83979 -1.35995,-1.63928 -1.79533,-2.75954c-0.32867,-0.8457 -0.71965,-2.11648 -0.82635,-4.45645c-0.11547,-2.5307 -0.13995,-3.2898 -0.13995,-9.69801c0,-6.40831 0.02448,-7.1674 0.13995,-9.69811c0.1067,-2.33998 0.49768,-3.61076 0.82635,-4.45645c0.43538,-1.12026 0.95544,-1.91975 1.79533,-2.75954c0.83979,-0.83988 1.63928,-1.35995 2.75954,-1.79533c0.8457,-0.32867 2.11648,-0.71965 4.45645,-0.82635c2.5307,-0.11547 3.2898,-0.13995 9.69811,-0.13995zM524.00005,171.67568c-6.80662,0 -12.32436,5.51774 -12.32436,12.32437c0,6.80653 5.51774,12.32427 12.32437,12.32427c6.80653,0 12.32427,-5.51774 12.32427,-12.32427c0,-6.80662 -5.51774,-12.32436 -12.32427,-12.32436zM524.00005,192c-4.41835,0 -8.00005,-3.5817 -8.00005,-7.99995c0,-4.41835 3.5817,-8.00005 8.00005,-8.00005c4.41825,0 7.99995,3.5817 7.99995,8.00005c0,4.41825 -3.5817,7.99995 -7.99995,7.99995zM539.69128,171.18877c0,1.5906 -1.28945,2.87996 -2.88005,2.87996c-1.5905,0 -2.87996,-1.28936 -2.87996,-2.87996c0,-1.5906 1.28945,-2.88005 2.87996,-2.88005c1.5906,0 2.88005,1.28946 2.88005,2.88005z" id="Instagram"></path></g></g></g></g></svg>